<mxfile host="app.diagrams.net" modified="2023-08-28T16:25:26.843Z" agent="Mozilla/5.0 (Windows NT 10.0; Win64; x64) AppleWebKit/537.36 (KHTML, like Gecko) Chrome/114.0.0.0 Safari/537.36 OPR/100.0.0.0" version="21.6.9" etag="uW5aokLpi52utWbZbkDM" type="github">
  <diagram name="PÃ¡gina-1" id="oVjLzA-BhHPJ7Z3SoJhy">
    <mxGraphModel>
      <root>
        <mxCell id="0" />
        <mxCell id="1" parent="0" />
      </root>
    </mxGraphModel>
  </diagram>
</mxfile>
